{
    "asset" : {
        "generator" : "Khronos glTF Blender I/O v1.6.16",
        "version" : "2.0"
    },
    "scene" : 0,
    "scenes" : [
        {
            "name" : "Scene",
            "nodes" : [
                6,
                13
            ]
        }
    ],
    "nodes" : [
        {
            "mesh" : 0,
            "name" : "Pillow",
            "translation" : [
                0,
                0.3649999797344208,
                0.01323081273585558
            ]
        },
        {
            "mesh" : 1,
            "name" : "Pillow.001",
            "translation" : [
                0,
                0.5176510810852051,
                -0.2750319540500641
            ]
        },
        {
            "mesh" : 2,
            "name" : "Pillow.002",
            "translation" : [
                0,
                0.3649999797344208,
                0.01323081273585558
            ]
        },
        {
            "name" : "Pillow_Seam",
            "translation" : [
                0,
                0.3649999797344208,
                0.01323081273585558
            ]
        },
        {
            "name" : "Pillow_Seam.001",
            "translation" : [
                0,
                0.5176510810852051,
                -0.2750319540500641
            ]
        },
        {
            "name" : "Seam_Bevel",
            "translation" : [
                0.005037941504269838,
                0.3378308117389679,
                -0.020562492311000824
            ]
        },
        {
            "children" : [
                0,
                1,
                2,
                3,
                4,
                5
            ],
            "mesh" : 3,
            "name" : "Cole_Armchair_Fabric"
        },
        {
            "mesh" : 4,
            "name" : "Pillow.003",
            "translation" : [
                0,
                0.3649999797344208,
                0.01323081273585558
            ]
        },
        {
            "mesh" : 5,
            "name" : "Pillow.004",
            "translation" : [
                0,
                0.5176510810852051,
                -0.2750319540500641
            ]
        },
        {
            "mesh" : 6,
            "name" : "Pillow.005",
            "translation" : [
                0,
                0.3649999797344208,
                0.01323081273585558
            ]
        },
        {
            "name" : "Pillow_Seam.002",
            "translation" : [
                0,
                0.3649999797344208,
                0.01323081273585558
            ]
        },
        {
            "name" : "Pillow_Seam.003",
            "translation" : [
                0,
                0.5176510810852051,
                -0.2750319540500641
            ]
        },
        {
            "name" : "Seam_Bevel.001",
            "scale" : [
                0.002112830290570855,
                0.002606052439659834,
                0.002606052439659834
            ],
            "translation" : [
                0.005037963390350342,
                0.3378308117389679,
                -0.020562492311000824
            ]
        },
        {
            "children" : [
                7,
                8,
                9,
                10,
                11,
                12
            ],
            "mesh" : 7,
            "name" : "Cole_Armchair_Leather",
            "translation" : [
                0.9570633769035339,
                0,
                0
            ]
        }
    ],
    "materials" : [
        {
            "doubleSided" : true,
            "name" : "Cole_Fabric",
            "pbrMetallicRoughness" : {
                "metallicFactor" : 0
            }
        },
        {
            "doubleSided" : true,
            "name" : "Cole_Metal",
            "pbrMetallicRoughness" : {
                "baseColorFactor" : [
                    0.05062686651945114,
                    0.05062686651945114,
                    0.05062686651945114,
                    1
                ],
                "metallicFactor" : 0,
                "roughnessFactor" : 0.5
            }
        },
        {
            "doubleSided" : true,
            "name" : "Cole_Leather",
            "pbrMetallicRoughness" : {
                "metallicFactor" : 0
            }
        }
    ],
    "meshes" : [
        {
            "name" : "Cube.003",
            "primitives" : [
                {
                    "attributes" : {
                        "POSITION" : 0,
                        "NORMAL" : 1,
                        "TEXCOORD_0" : 2
                    },
                    "indices" : 3,
                    "material" : 0
                }
            ]
        },
        {
            "name" : "Cube.006",
            "primitives" : [
                {
                    "attributes" : {
                        "POSITION" : 4,
                        "NORMAL" : 5,
                        "TEXCOORD_0" : 6
                    },
                    "indices" : 7,
                    "material" : 0
                }
            ]
        },
        {
            "name" : "Cube.002",
            "primitives" : [
                {
                    "attributes" : {
                        "POSITION" : 8,
                        "NORMAL" : 9,
                        "TEXCOORD_0" : 10
                    },
                    "indices" : 11,
                    "material" : 0
                }
            ]
        },
        {
            "name" : "Cube.001",
            "primitives" : [
                {
                    "attributes" : {
                        "POSITION" : 12,
                        "NORMAL" : 13,
                        "TEXCOORD_0" : 14
                    },
                    "indices" : 15,
                    "material" : 1
                }
            ]
        },
        {
            "name" : "Cube.007",
            "primitives" : [
                {
                    "attributes" : {
                        "POSITION" : 16,
                        "NORMAL" : 17,
                        "TEXCOORD_0" : 18
                    },
                    "indices" : 3,
                    "material" : 2
                }
            ]
        },
        {
            "name" : "Cube.008",
            "primitives" : [
                {
                    "attributes" : {
                        "POSITION" : 19,
                        "NORMAL" : 20,
                        "TEXCOORD_0" : 21
                    },
                    "indices" : 7,
                    "material" : 2
                }
            ]
        },
        {
            "name" : "Cube.009",
            "primitives" : [
                {
                    "attributes" : {
                        "POSITION" : 22,
                        "NORMAL" : 23,
                        "TEXCOORD_0" : 24
                    },
                    "indices" : 11,
                    "material" : 2
                }
            ]
        },
        {
            "name" : "Cube.005",
            "primitives" : [
                {
                    "attributes" : {
                        "POSITION" : 25,
                        "NORMAL" : 26,
                        "TEXCOORD_0" : 27
                    },
                    "indices" : 28,
                    "material" : 1
                }
            ]
        }
    ],
    "accessors" : [
        {
            "bufferView" : 0,
            "componentType" : 5126,
            "count" : 6526,
            "max" : [
                0.31478121876716614,
                0.06987710297107697,
                0.4434971213340759
            ],
            "min" : [
                -0.3193778991699219,
                -0.17555998265743256,
                -0.23657092452049255
            ],
            "type" : "VEC3"
        },
        {
            "bufferView" : 1,
            "componentType" : 5126,
            "count" : 6526,
            "type" : "VEC3"
        },
        {
            "bufferView" : 2,
            "componentType" : 5126,
            "count" : 6526,
            "type" : "VEC2"
        },
        {
            "bufferView" : 3,
            "componentType" : 5123,
            "count" : 36864,
            "type" : "SCALAR"
        },
        {
            "bufferView" : 4,
            "componentType" : 5126,
            "count" : 6527,
            "max" : [
                0.3152245581150055,
                0.2582396864891052,
                0.24374312162399292
            ],
            "min" : [
                -0.31964612007141113,
                -0.21486029028892517,
                -0.11587314307689667
            ],
            "type" : "VEC3"
        },
        {
            "bufferView" : 5,
            "componentType" : 5126,
            "count" : 6527,
            "type" : "VEC3"
        },
        {
            "bufferView" : 6,
            "componentType" : 5126,
            "count" : 6527,
            "type" : "VEC2"
        },
        {
            "bufferView" : 7,
            "componentType" : 5123,
            "count" : 36864,
            "type" : "SCALAR"
        },
        {
            "bufferView" : 8,
            "componentType" : 5126,
            "count" : 80,
            "max" : [
                0.3123016357421875,
                0.32981768250465393,
                0.4441397786140442
            ],
            "min" : [
                -0.311561644077301,
                -0.19388137757778168,
                -0.4418139159679413
            ],
            "type" : "VEC3"
        },
        {
            "bufferView" : 9,
            "componentType" : 5126,
            "count" : 80,
            "type" : "VEC3"
        },
        {
            "bufferView" : 10,
            "componentType" : 5126,
            "count" : 80,
            "type" : "VEC2"
        },
        {
            "bufferView" : 11,
            "componentType" : 5123,
            "count" : 120,
            "type" : "SCALAR"
        },
        {
            "bufferView" : 12,
            "componentType" : 5126,
            "count" : 416,
            "max" : [
                0.32749995589256287,
                0.6857167482376099,
                0.45573076605796814
            ],
            "min" : [
                -0.32749995589256287,
                0,
                -0.4438845217227936
            ],
            "type" : "VEC3"
        },
        {
            "bufferView" : 13,
            "componentType" : 5126,
            "count" : 416,
            "type" : "VEC3"
        },
        {
            "bufferView" : 14,
            "componentType" : 5126,
            "count" : 416,
            "type" : "VEC2"
        },
        {
            "bufferView" : 15,
            "componentType" : 5123,
            "count" : 960,
            "type" : "SCALAR"
        },
        {
            "bufferView" : 16,
            "componentType" : 5126,
            "count" : 6526,
            "max" : [
                0.31478121876716614,
                0.06987708806991577,
                0.4434971213340759
            ],
            "min" : [
                -0.3193778991699219,
                -0.17555996775627136,
                -0.23657092452049255
            ],
            "type" : "VEC3"
        },
        {
            "bufferView" : 17,
            "componentType" : 5126,
            "count" : 6526,
            "type" : "VEC3"
        },
        {
            "bufferView" : 18,
            "componentType" : 5126,
            "count" : 6526,
            "type" : "VEC2"
        },
        {
            "bufferView" : 19,
            "componentType" : 5126,
            "count" : 6527,
            "max" : [
                0.3152245581150055,
                0.2582396864891052,
                0.24374312162399292
            ],
            "min" : [
                -0.31964612007141113,
                -0.21486030519008636,
                -0.11587314307689667
            ],
            "type" : "VEC3"
        },
        {
            "bufferView" : 20,
            "componentType" : 5126,
            "count" : 6527,
            "type" : "VEC3"
        },
        {
            "bufferView" : 21,
            "componentType" : 5126,
            "count" : 6527,
            "type" : "VEC2"
        },
        {
            "bufferView" : 22,
            "componentType" : 5126,
            "count" : 80,
            "max" : [
                0.3123016357421875,
                0.32981768250465393,
                0.4441397786140442
            ],
            "min" : [
                -0.311561644077301,
                -0.19388137757778168,
                -0.4418139159679413
            ],
            "type" : "VEC3"
        },
        {
            "bufferView" : 23,
            "componentType" : 5126,
            "count" : 80,
            "type" : "VEC3"
        },
        {
            "bufferView" : 24,
            "componentType" : 5126,
            "count" : 80,
            "type" : "VEC2"
        },
        {
            "bufferView" : 25,
            "componentType" : 5126,
            "count" : 416,
            "max" : [
                0.32749998569488525,
                0.6857168674468994,
                0.4557308256626129
            ],
            "min" : [
                -0.32749998569488525,
                0,
                -0.44388458132743835
            ],
            "type" : "VEC3"
        },
        {
            "bufferView" : 26,
            "componentType" : 5126,
            "count" : 416,
            "type" : "VEC3"
        },
        {
            "bufferView" : 27,
            "componentType" : 5126,
            "count" : 416,
            "type" : "VEC2"
        },
        {
            "bufferView" : 28,
            "componentType" : 5123,
            "count" : 960,
            "type" : "SCALAR"
        }
    ],
    "bufferViews" : [
        {
            "buffer" : 0,
            "byteLength" : 78312,
            "byteOffset" : 0
        },
        {
            "buffer" : 0,
            "byteLength" : 78312,
            "byteOffset" : 78312
        },
        {
            "buffer" : 0,
            "byteLength" : 52208,
            "byteOffset" : 156624
        },
        {
            "buffer" : 0,
            "byteLength" : 73728,
            "byteOffset" : 208832
        },
        {
            "buffer" : 0,
            "byteLength" : 78324,
            "byteOffset" : 282560
        },
        {
            "buffer" : 0,
            "byteLength" : 78324,
            "byteOffset" : 360884
        },
        {
            "buffer" : 0,
            "byteLength" : 52216,
            "byteOffset" : 439208
        },
        {
            "buffer" : 0,
            "byteLength" : 73728,
            "byteOffset" : 491424
        },
        {
            "buffer" : 0,
            "byteLength" : 960,
            "byteOffset" : 565152
        },
        {
            "buffer" : 0,
            "byteLength" : 960,
            "byteOffset" : 566112
        },
        {
            "buffer" : 0,
            "byteLength" : 640,
            "byteOffset" : 567072
        },
        {
            "buffer" : 0,
            "byteLength" : 240,
            "byteOffset" : 567712
        },
        {
            "buffer" : 0,
            "byteLength" : 4992,
            "byteOffset" : 567952
        },
        {
            "buffer" : 0,
            "byteLength" : 4992,
            "byteOffset" : 572944
        },
        {
            "buffer" : 0,
            "byteLength" : 3328,
            "byteOffset" : 577936
        },
        {
            "buffer" : 0,
            "byteLength" : 1920,
            "byteOffset" : 581264
        },
        {
            "buffer" : 0,
            "byteLength" : 78312,
            "byteOffset" : 583184
        },
        {
            "buffer" : 0,
            "byteLength" : 78312,
            "byteOffset" : 661496
        },
        {
            "buffer" : 0,
            "byteLength" : 52208,
            "byteOffset" : 739808
        },
        {
            "buffer" : 0,
            "byteLength" : 78324,
            "byteOffset" : 792016
        },
        {
            "buffer" : 0,
            "byteLength" : 78324,
            "byteOffset" : 870340
        },
        {
            "buffer" : 0,
            "byteLength" : 52216,
            "byteOffset" : 948664
        },
        {
            "buffer" : 0,
            "byteLength" : 960,
            "byteOffset" : 1000880
        },
        {
            "buffer" : 0,
            "byteLength" : 960,
            "byteOffset" : 1001840
        },
        {
            "buffer" : 0,
            "byteLength" : 640,
            "byteOffset" : 1002800
        },
        {
            "buffer" : 0,
            "byteLength" : 4992,
            "byteOffset" : 1003440
        },
        {
            "buffer" : 0,
            "byteLength" : 4992,
            "byteOffset" : 1008432
        },
        {
            "buffer" : 0,
            "byteLength" : 3328,
            "byteOffset" : 1013424
        },
        {
            "buffer" : 0,
            "byteLength" : 1920,
            "byteOffset" : 1016752
        }
    ],
    "buffers" : [
        {
            "byteLength" : 1018672,
            "uri" : "data:application/octet-stream;base64,"
        }
    ]
}
